<?xml version="1.0" encoding="UTF-8"?>
<!DOCTYPE svg PUBLIC "-//W3C//DTD SVG 1.1//EN" "http://www.w3.org/Graphics/SVG/1.1/DTD/svg11.dtd">
<svg xmlns="http://www.w3.org/2000/svg" version="1.1" width="222px" height="243px" style="shape-rendering:geometricPrecision; text-rendering:geometricPrecision; image-rendering:optimizeQuality; fill-rule:evenodd; clip-rule:evenodd" xmlns:xlink="http://www.w3.org/1999/xlink">
<g><path style="opacity:0.981" fill="#fefffe" d="M 117.5,77.5 C 127.081,69.5795 134.414,59.9129 139.5,48.5C 136.123,46.0558 132.623,43.7225 129,41.5C 128.333,40.1667 128.333,38.8333 129,37.5C 139.175,32.7255 149.341,28.0589 159.5,23.5C 161.484,22.8443 163.484,22.1776 165.5,21.5C 167.029,21.5288 168.196,22.1955 169,23.5C 172.093,37.3843 174.093,51.3843 175,65.5C 173.274,66.5762 171.441,66.7429 169.5,66C 166.582,64.2912 163.748,62.4579 161,60.5C 134.176,106.066 95.0094,122.066 43.5,108.5C 42.3691,106.926 42.2025,105.259 43,103.5C 66.0529,103.362 87.5529,97.5286 107.5,86C 111.09,83.3858 114.424,80.5525 117.5,77.5 Z M 145.5,69.5 C 137.605,82.0652 126.939,91.3985 113.5,97.5C 106.793,100.902 99.6264,103.235 92,104.5C 90.5962,104.491 89.4296,103.991 88.5,103C 105.88,96.9304 120.88,86.7637 133.5,72.5C 139.966,64.4096 145.3,55.5762 149.5,46C 147.627,43.0512 144.961,41.0512 141.5,40C 148.469,36.8501 155.469,33.6835 162.5,30.5C 164.467,38.8291 165.967,47.1624 167,55.5C 164.036,53.1184 160.87,52.1184 157.5,52.5C 153.724,58.4088 149.724,64.0754 145.5,69.5 Z M 85.5,103.5 C 86.4734,103.987 87.4734,104.487 88.5,105C 86.1667,105.667 83.8333,105.667 81.5,105C 83.0581,104.79 84.3915,104.29 85.5,103.5 Z"/></g>
<g><path style="opacity:0.012" fill="#fefffe" d="M 159.5,23.5 C 158.833,22.1667 158.833,22.1667 159.5,23.5 Z"/></g>
<g><path style="opacity:0.024" fill="#fefffe" d="M 151.5,24.5 C 151.897,23.475 152.563,23.3083 153.5,24C 152.906,24.4643 152.239,24.631 151.5,24.5 Z"/></g>
<g><path style="opacity:0.024" fill="#fefffe" d="M 175.5,66.5 C 176.833,67.1667 176.833,67.1667 175.5,66.5 Z"/></g>
<g><path style="opacity:0.012" fill="#fefffe" d="M 118.5,73.5 C 119.833,74.1667 119.833,74.1667 118.5,73.5 Z"/></g>
<g><path style="opacity:0.047" fill="#fefffe" d="M 117.5,77.5 C 116.833,76.1667 116.833,76.1667 117.5,77.5 Z"/></g>
<g><path style="opacity:0.995" fill="#fefffe" d="M 174.5,103.5 C 174.173,127.075 174.506,150.575 175.5,174C 174.939,178.629 173.772,183.129 172,187.5C 170.457,189.378 168.624,190.878 166.5,192C 159.5,192.667 152.5,192.667 145.5,192C 141.502,190.514 139.002,187.68 138,183.5C 137.333,156.5 137.333,129.5 138,102.5C 141.265,94.5331 147.265,91.5331 156,93.5C 165.247,91.5344 171.413,94.8678 174.5,103.5 Z M 147.5,100.5 C 152.844,100.334 158.177,100.501 163.5,101C 165.538,102.236 166.705,104.069 167,106.5C 167.479,130.873 167.645,155.039 167.5,179C 166.891,181.51 165.558,183.51 163.5,185C 158.167,185.667 152.833,185.667 147.5,185C 146.107,183.829 145.273,182.329 145,180.5C 144.333,155.167 144.333,129.833 145,104.5C 145.662,103.016 146.496,101.683 147.5,100.5 Z"/></g>
<g><path style="opacity:0.014" fill="#fefffe" d="M 73.5,98.5 C 73.8966,97.475 74.5632,97.3083 75.5,98C 74.9056,98.4643 74.2389,98.631 73.5,98.5 Z"/></g>
<g><path style="opacity:0.012" fill="#fefffe" d="M 174.5,103.5 C 174.351,102.448 174.517,101.448 175,100.5C 175.74,101.749 175.573,102.749 174.5,103.5 Z"/></g>
<g><path style="opacity:0.024" fill="#fefffe" d="M 118.5,104.5 C 119.833,105.167 119.833,105.167 118.5,104.5 Z"/></g>
<g><path style="opacity:0.004" fill="#fefffe" d="M 112.5,107.5 C 113.833,108.167 113.833,108.167 112.5,107.5 Z"/></g>
<g><path style="opacity:0.995" fill="#fefffe" d="M 93.5,190.5 C 90.9135,187.321 89.4135,183.654 89,179.5C 88.0719,162.122 88.4052,144.789 90,127.5C 91.1667,123.667 93.6667,121.167 97.5,120C 104.167,119.333 110.833,119.333 117.5,120C 121.333,121.167 123.833,123.667 125,127.5C 125.667,146.5 125.667,165.5 125,184.5C 123.807,188.36 121.307,190.86 117.5,192C 110.5,192.667 103.5,192.667 96.5,192C 95.4734,191.487 94.4734,190.987 93.5,190.5 Z M 100.5,126.5 C 105.179,126.334 109.845,126.501 114.5,127C 116.333,127.5 117.5,128.667 118,130.5C 118.667,147.5 118.667,164.5 118,181.5C 117.535,182.931 116.701,184.097 115.5,185C 110.167,185.667 104.833,185.667 99.5,185C 98.6667,184.167 97.8333,183.333 97,182.5C 96.3333,165.167 96.3333,147.833 97,130.5C 97.6897,128.65 98.8564,127.316 100.5,126.5 Z"/></g>
<g><path style="opacity:0.992" fill="#fefffe" d="M 52.5,141.5 C 60.5852,141.099 68.5852,141.599 76.5,143C 78.6166,144.731 80.1166,146.898 81,149.5C 81.6667,161.167 81.6667,172.833 81,184.5C 80.1166,187.102 78.6166,189.269 76.5,191C 68.5788,192.568 60.5788,192.901 52.5,192C 47.6314,189.749 45.1314,185.915 45,180.5C 44.3333,171.5 44.3333,162.5 45,153.5C 45.3174,148.038 47.8174,144.038 52.5,141.5 Z M 55.5,148.5 C 60.6314,148.464 65.9648,148.631 71.5,149C 72.7014,149.903 73.5348,151.069 74,152.5C 74.6667,162.167 74.6667,171.833 74,181.5C 73.5348,182.931 72.7014,184.097 71.5,185C 66.1667,185.667 60.8333,185.667 55.5,185C 54.6667,184.167 53.8333,183.333 53,182.5C 52.3333,172.167 52.3333,161.833 53,151.5C 54.045,150.627 54.8783,149.627 55.5,148.5 Z"/></g>
<g><path style="opacity:0.008" fill="#fefffe" d="M 43.5,150.5 C 44.8333,151.167 44.8333,151.167 43.5,150.5 Z"/></g>
<g><path style="opacity:0.006" fill="#fefffe" d="M 41.5,180.5 C 42.525,180.897 42.6917,181.563 42,182.5C 41.5357,181.906 41.369,181.239 41.5,180.5 Z"/></g>
<g><path style="opacity:0.114" fill="#fefffe" d="M 80.5,187.5 C 81.8333,188.167 81.8333,188.167 80.5,187.5 Z"/></g>
<g><path style="opacity:0.004" fill="#fefffe" d="M 137.5,187.5 C 138.833,188.167 138.833,188.167 137.5,187.5 Z"/></g>
<g><path style="opacity:0.024" fill="#fefffe" d="M 93.5,190.5 C 92.8333,191.167 92.8333,191.167 93.5,190.5 Z"/></g>
<g><path style="opacity:0.024" fill="#fefffe" d="M 45.5,191.5 C 46.8333,192.167 46.8333,192.167 45.5,191.5 Z"/></g>
<g><path style="opacity:0.024" fill="#fefffe" d="M 174.5,193.5 C 175.833,194.167 175.833,194.167 174.5,193.5 Z"/></g>
<g><path style="opacity:0.006" fill="#fefffe" d="M 55.5,196.5 C 55.8966,195.475 56.5632,195.308 57.5,196C 56.9056,196.464 56.2389,196.631 55.5,196.5 Z"/></g>
</svg>
