<?xml version="1.0" encoding="UTF-8"?>
<!DOCTYPE svg PUBLIC "-//W3C//DTD SVG 1.1//EN" "http://www.w3.org/Graphics/SVG/1.1/DTD/svg11.dtd">
<svg xmlns="http://www.w3.org/2000/svg" version="1.1" width="232px" height="246px" style="shape-rendering:geometricPrecision; text-rendering:geometricPrecision; image-rendering:optimizeQuality; fill-rule:evenodd; clip-rule:evenodd" xmlns:xlink="http://www.w3.org/1999/xlink">
<g><path style="opacity:0.774" fill="#fefffe" d="M 160.5,42.5 C 159.167,42.8333 159.167,43.1667 160.5,43.5C 157.598,47.101 154.431,49.7677 151,51.5C 130.573,50.6728 110.073,50.1728 89.5,50C 84.3107,46.3947 81.9774,40.8947 82.5,33.5C 82.0616,26.136 84.0616,20.136 88.5,15.5C 110.508,14.1789 132.508,14.1789 154.5,15.5C 156.853,18.714 159.186,21.214 161.5,23C 160.558,29.4535 160.225,35.9535 160.5,42.5 Z M 97.5,29.5 C 113.503,29.3334 129.503,29.5001 145.5,30C 146.833,32 146.833,34 145.5,36C 130.167,36.6667 114.833,36.6667 99.5,36C 97.75,34.2458 97.0833,32.0792 97.5,29.5 Z"/></g>
<g><path style="opacity:0.012" fill="#fefffe" d="M 160.5,42.5 C 161.833,43.1667 161.833,43.1667 160.5,42.5 Z"/></g>
<g><path style="opacity:0.805" fill="#fefffe" d="M 67.5,127.5 C 64.8046,124.474 62.1379,121.474 59.5,118.5C 55.9331,115.023 52.5998,111.356 49.5,107.5C 40.1276,100.139 40.4609,92.8057 50.5,85.5C 60.9386,84.6641 71.6052,84.3308 82.5,84.5C 82.8158,76.2476 82.4825,68.081 81.5,60C 83.8333,57.6667 86.1667,55.3333 88.5,53C 110.167,52.3333 131.833,52.3333 153.5,53C 156.934,54.3495 159.101,56.8495 160,60.5C 160.5,68.4931 160.666,76.4931 160.5,84.5C 169.839,84.3335 179.173,84.5002 188.5,85C 193.296,85.4828 197.296,87.4828 200.5,91C 200.665,94.3463 200.331,97.8463 199.5,101.5C 196.259,105.238 192.925,108.738 189.5,112C 189.833,112.333 190.167,112.667 190.5,113C 188.167,115 185.833,117 183.5,119C 183.833,119.333 184.167,119.667 184.5,120C 182.183,121.32 180.183,122.986 178.5,125C 178.833,125.333 179.167,125.667 179.5,126C 175.397,127.994 172.397,130.494 170.5,133.5C 169.05,134.85 168.383,136.516 168.5,138.5C 166.61,138.297 165.11,138.963 164,140.5C 163.047,142.455 161.713,144.122 160,145.5C 159.51,146.793 159.343,148.127 159.5,149.5C 158.448,149.351 157.448,149.517 156.5,150C 148.537,158.588 140.204,167.755 131.5,177.5C 125.217,181.487 118.883,181.487 112.5,177.5C 109.312,174.419 105.979,171.586 102.5,169C 102.018,167.992 101.852,166.825 102,165.5C 94.3061,157.973 87.1394,149.973 80.5,141.5C 79.675,140.614 78.675,140.281 77.5,140.5C 77.6495,139.448 77.4828,138.448 77,137.5C 73.2636,134.6 70.0969,131.266 67.5,127.5 Z M 161.5,123.5 C 161.167,122.167 160.833,122.167 160.5,123.5C 155.954,130.063 150.954,136.396 145.5,142.5C 143.227,143.767 141.227,145.433 139.5,147.5C 135.786,152.204 132.119,156.871 128.5,161.5C 127.167,162.167 125.833,162.833 124.5,163.5C 124.278,166.076 122.945,166.91 120.5,166C 115.392,160.923 110.892,155.423 107,149.5C 101.027,144.194 95.3604,138.527 90,132.5C 89.3162,131.216 89.4829,130.049 90.5,129C 89.2559,128.544 88.4226,129.044 88,130.5C 79.4919,119.332 70.3253,108.832 60.5,99C 70.4107,98.1819 80.2441,98.3485 90,99.5C 92.0183,98.7772 93.8516,97.7772 95.5,96.5C 95.7086,95.0783 96.2086,93.745 97,92.5C 97.4998,83.8397 97.6664,75.1731 97.5,66.5C 113.5,66.5 129.5,66.5 145.5,66.5C 145.334,75.5062 145.5,84.5062 146,93.5C 147.588,97.2531 150.421,99.2531 154.5,99.5C 162.236,98.4868 170.236,98.3201 178.5,99C 181.028,100.017 181.028,101.184 178.5,102.5C 178.709,103.086 179.043,103.586 179.5,104C 173.262,110.948 167.262,117.448 161.5,123.5 Z"/></g>
<g><path style="opacity:0.024" fill="#fefffe" d="M 44.5,106.5 C 45.8333,107.167 45.8333,107.167 44.5,106.5 Z"/></g>
<g><path style="opacity:0.024" fill="#fefffe" d="M 49.5,107.5 C 48.8333,108.167 48.8333,108.167 49.5,107.5 Z"/></g>
<g><path style="opacity:0.035" fill="#fefffe" d="M 59.5,118.5 C 58.8333,119.167 58.8333,119.167 59.5,118.5 Z"/></g>
<g><path style="opacity:0.024" fill="#fefffe" d="M 61.5,126.5 C 62.525,126.897 62.6917,127.563 62,128.5C 61.5357,127.906 61.369,127.239 61.5,126.5 Z"/></g>
<g><path style="opacity:0.024" fill="#fefffe" d="M 67.5,127.5 C 66.8333,128.167 66.8333,128.167 67.5,127.5 Z"/></g>
<g><path style="opacity:0.024" fill="#fefffe" d="M 50.5,158.5 C 49.8333,157.167 49.8333,157.167 50.5,158.5 Z"/></g>
<g><path style="opacity:0.806" fill="#fefffe" d="M 50.5,158.5 C 52.0894,160.306 54.0894,161.639 56.5,162.5C 57.2446,164.747 58.578,166.58 60.5,168C 59.5251,173.741 59.1918,179.575 59.5,185.5C 101.167,185.5 142.833,185.5 184.5,185.5C 184.334,179.491 184.501,173.491 185,167.5C 185.739,165.779 186.573,164.113 187.5,162.5C 189.517,161.826 191.183,160.659 192.5,159C 200.423,159.269 208.423,159.602 216.5,160C 219.272,161.104 221.438,162.937 223,165.5C 223.193,179.033 223.693,192.533 224.5,206C 223.796,209.128 223.296,212.294 223,215.5C 222.426,217.492 221.259,218.992 219.5,220C 220.747,221.494 220.747,222.994 219.5,224.5C 218.692,224.192 218.025,223.692 217.5,223C 153.833,222.667 90.1667,222.333 26.5,222C 24.3333,220.5 22.5,218.667 21,216.5C 20.3333,199.833 20.3333,183.167 21,166.5C 22.1667,163.333 24.3333,161.167 27.5,160C 35.3443,159.829 43.011,159.329 50.5,158.5 Z M 48.5,198.5 C 48.9867,199.473 49.4867,200.473 50,201.5C 96.3333,200.167 142.667,200.167 189,201.5C 191.154,200.77 193.321,200.103 195.5,199.5C 195.833,198.833 196.167,198.167 196.5,197.5C 197.5,197.5 198.5,197.5 199.5,197.5C 199.5,189.5 199.5,181.5 199.5,173.5C 202.5,173.5 205.5,173.5 208.5,173.5C 208.5,185.167 208.5,196.833 208.5,208.5C 150.833,208.5 93.1667,208.5 35.5,208.5C 35.5,197.833 35.5,187.167 35.5,176.5C 36.8333,176.167 36.8333,175.833 35.5,175.5C 37.1446,173.226 38.6446,173.226 40,175.5C 41.1531,173.503 42.6531,173.17 44.5,174.5C 44.2907,175.086 43.9574,175.586 43.5,176C 44.314,182.753 44.814,189.586 45,196.5C 46.1127,197.305 47.2794,197.972 48.5,198.5 Z"/></g>
<g><path style="opacity:0.024" fill="#fefffe" d="M 90.5,158.5 C 91.8333,159.167 91.8333,159.167 90.5,158.5 Z"/></g>
<g><path style="opacity:0.031" fill="#fefffe" d="M 28.5,223.5 C 30.337,223.639 30.6704,224.306 29.5,225.5C 28.7025,225.043 28.3691,224.376 28.5,223.5 Z"/></g>
</svg>
