<?xml version="1.0" encoding="UTF-8"?>
<svg xmlns="http://www.w3.org/2000/svg" xmlns:xlink="http://www.w3.org/1999/xlink" width="50px" height="50px" viewBox="0 0 50 50" version="1.1">
<g id="surface1">
<path style=" stroke:none;fill-rule:nonzero;fill:rgb(0%,0%,0%);fill-opacity:1;" d="M 43.75 15.625 C 38.144531 15.617188 33.601562 11.074219 33.59375 5.46875 C 33.59375 5.039062 33.242188 4.6875 32.8125 4.6875 L 25 4.6875 C 24.570312 4.6875 24.21875 5.039062 24.21875 5.46875 L 24.21875 30.46875 C 24.21875 32.792969 22.515625 34.761719 20.21875 35.105469 C 17.921875 35.445312 15.722656 34.050781 15.046875 31.832031 C 14.371094 29.609375 15.425781 27.226562 17.523438 26.230469 C 17.796875 26.101562 17.96875 25.828125 17.96875 25.527344 L 17.96875 17.394531 C 17.96875 17.164062 17.867188 16.941406 17.6875 16.792969 C 17.511719 16.644531 17.277344 16.585938 17.050781 16.625 C 9.722656 17.9375 4.6875 24.734375 5.566406 32.125 C 6.441406 39.519531 12.929688 44.945312 20.359375 44.507812 C 27.792969 44.066406 33.59375 37.914062 33.59375 30.46875 L 33.59375 22.15625 C 36.652344 24.023438 40.167969 25.007812 43.75 25 C 44.179688 25 44.53125 24.648438 44.53125 24.21875 L 44.53125 16.40625 C 44.53125 15.976562 44.179688 15.625 43.75 15.625 Z M 42.96875 23.421875 C 39.476562 23.277344 36.101562 22.109375 33.269531 20.066406 C 33.03125 19.894531 32.71875 19.871094 32.457031 20.003906 C 32.195312 20.136719 32.03125 20.40625 32.03125 20.699219 L 32.03125 30.46875 C 32.027344 36.964844 27.050781 42.375 20.582031 42.921875 C 14.109375 43.464844 8.296875 38.960938 7.207031 32.558594 C 6.121094 26.15625 10.117188 19.984375 16.40625 18.363281 L 16.40625 25.054688 C 13.777344 26.570312 12.621094 29.753906 13.65625 32.605469 C 14.695312 35.457031 17.628906 37.152344 20.617188 36.625 C 23.601562 36.097656 25.78125 33.503906 25.78125 30.46875 L 25.78125 6.25 L 32.058594 6.25 C 32.457031 12.101562 37.117188 16.761719 42.96875 17.160156 Z M 42.96875 23.421875 "/>
</g>
</svg>
